<svg xmlns="http://www.w3.org/2000/svg" width="1440" height="900" viewBox="0 0 1440 900">
  <defs>
    <linearGradient id="hero" x1="0" y1="0" x2="1" y2="1">
      <stop offset="0%" stop-color="#7f1d1d"/>
      <stop offset="100%" stop-color="#1d4ed8"/>
    </linearGradient>
  </defs>
  <rect width="1440" height="900" fill="#f8fafc"/>
  <rect x="36" y="28" width="1368" height="110" rx="24" fill="url(#hero)"/>
  <text x="720" y="78" font-size="34" text-anchor="middle" fill="#fff" font-family="Segoe UI, Arial">Akademik Kadro ve Konu Bazli Oneriler</text>
  <text x="720" y="108" font-size="16" text-anchor="middle" fill="#dbeafe" font-family="Segoe UI, Arial">Temsili gorunum - yayin havuzu, strateji ve ilerleme paneli</text>

  <rect x="36" y="166" width="1368" height="88" rx="20" fill="#ffffff" stroke="#dbe4f0"/>
  <rect x="66" y="190" width="200" height="42" rx="14" fill="#fef2f2"/>
  <rect x="286" y="190" width="200" height="42" rx="14" fill="#eff6ff"/>
  <rect x="506" y="190" width="200" height="42" rx="14" fill="#ecfdf5"/>
  <rect x="726" y="190" width="200" height="42" rx="14" fill="#fff7ed"/>
  <rect x="946" y="190" width="200" height="42" rx="14" fill="#f8fafc" stroke="#cbd5e1"/>
  <text x="166" y="216" font-size="16" text-anchor="middle" fill="#7f1d1d" font-family="Segoe UI, Arial">Akademik Kadro</text>
  <text x="386" y="216" font-size="16" text-anchor="middle" fill="#1d4ed8" font-family="Segoe UI, Arial">Konu Bazli Oneriler</text>
  <text x="606" y="216" font-size="16" text-anchor="middle" fill="#047857" font-family="Segoe UI, Arial">Ilerleme Takibi</text>
  <text x="826" y="216" font-size="16" text-anchor="middle" fill="#c2410c" font-family="Segoe UI, Arial">Telafi Plani</text>
  <text x="1046" y="216" font-size="16" text-anchor="middle" fill="#475569" font-family="Segoe UI, Arial">Haftalik Rapor</text>

  <rect x="36" y="280" width="430" height="584" rx="24" fill="#ffffff" stroke="#dbe4f0"/>
  <text x="68" y="324" font-size="26" fill="#0f172a" font-family="Segoe UI, Arial">Ogretim Uyesi ve Yayin Havuzu</text>
  <rect x="68" y="350" width="366" height="118" rx="18" fill="#f8fafc" stroke="#e2e8f0"/>
  <text x="92" y="386" font-size="20" fill="#111827" font-family="Segoe UI, Arial">Prof. Dr. Hilal YILDIRIR KESER</text>
  <text x="92" y="414" font-size="14" fill="#475569" font-family="Segoe UI, Arial">Uluslararasi Ticaret | BTU Sayfam | Makaleler, Bildiriler</text>
  <text x="92" y="442" font-size="14" fill="#475569" font-family="Segoe UI, Arial">Yayin, Atif, H-index verileri ve kategori sayilari</text>
  <rect x="68" y="490" width="366" height="330" rx="18" fill="#f8fafc" stroke="#e2e8f0"/>
  <text x="92" y="526" font-size="22" fill="#0f172a" font-family="Segoe UI, Arial">Yayin ve Bildiri Havuzu</text>
  <text x="92" y="560" font-size="15" fill="#475569" font-family="Segoe UI, Arial">1. Global Trade Strategies and Digital Export Models</text>
  <text x="92" y="590" font-size="15" fill="#475569" font-family="Segoe UI, Arial">2. Sustainable Logistics and Supply Chain Analysis</text>
  <text x="92" y="620" font-size="15" fill="#475569" font-family="Segoe UI, Arial">3. Customs, E-Trade and Risk Management Proceedings</text>

  <rect x="492" y="280" width="430" height="584" rx="24" fill="#ffffff" stroke="#dbe4f0"/>
  <text x="524" y="324" font-size="26" fill="#0f172a" font-family="Segoe UI, Arial">Otomatik Calisma Motoru</text>
  <rect x="524" y="352" width="366" height="96" rx="18" fill="#eff6ff"/>
  <text x="548" y="387" font-size="18" fill="#1d4ed8" font-family="Segoe UI, Arial">Vize Haftasi Stratejisi</text>
  <text x="548" y="415" font-size="14" fill="#1e40af" font-family="Segoe UI, Arial">Odak: temel kavramlar, tekrar, konu haritasi</text>
  <rect x="524" y="470" width="366" height="120" rx="18" fill="#ecfdf5"/>
  <text x="548" y="504" font-size="20" fill="#047857" font-family="Segoe UI, Arial">Otomatik Okuma Listesi</text>
  <text x="548" y="534" font-size="14" fill="#047857" font-family="Segoe UI, Arial">1. Yayin | 2. Yayin | 3. Yayin | 4. Yayin</text>
  <text x="548" y="562" font-size="14" fill="#047857" font-family="Segoe UI, Arial">Oncelik, asama ve konu eslesmeleri ile siralama</text>
  <rect x="524" y="612" width="366" height="208" rx="18" fill="#fff7ed"/>
  <text x="548" y="646" font-size="20" fill="#c2410c" font-family="Segoe UI, Arial">Gunluk Plan + Mini Mod</text>
  <text x="548" y="676" font-size="14" fill="#9a3412" font-family="Segoe UI, Arial">Gun 1: 10 dk isinma, 30 dk ana okuma, 20 dk tekrar</text>
  <text x="548" y="706" font-size="14" fill="#9a3412" font-family="Segoe UI, Arial">60 dk mini mod: Isinma, ana okuma, not cikar</text>
  <text x="548" y="736" font-size="14" fill="#9a3412" font-family="Segoe UI, Arial">Sonraki gun uyarlamasi ilerlemeye gore degisir</text>

  <rect x="948" y="280" width="456" height="584" rx="24" fill="#ffffff" stroke="#dbe4f0"/>
  <text x="980" y="324" font-size="26" fill="#0f172a" font-family="Segoe UI, Arial">Kisisel Ilerleme ve Raporlama</text>
  <rect x="980" y="352" width="392" height="130" rx="18" fill="#f8fafc" stroke="#e2e8f0"/>
  <text x="1006" y="388" font-size="20" fill="#111827" font-family="Segoe UI, Arial">Tamamlandi Isaretleme</text>
  <text x="1006" y="418" font-size="14" fill="#475569" font-family="Segoe UI, Arial">[x] Okuma listesi</text>
  <text x="1006" y="444" font-size="14" fill="#475569" font-family="Segoe UI, Arial">[x] Gun 1 plani</text>
  <text x="1006" y="470" font-size="14" fill="#475569" font-family="Segoe UI, Arial">[ ] Mini mod blok 2</text>
  <rect x="980" y="506" width="392" height="140" rx="18" fill="#eff6ff"/>
  <text x="1006" y="542" font-size="20" fill="#1d4ed8" font-family="Segoe UI, Arial">Otomatik Telafi Plani</text>
  <text x="1006" y="572" font-size="14" fill="#1e40af" font-family="Segoe UI, Arial">Tamamlanmayan yayinlar ve kacirilan gunler toplaniyor</text>
  <text x="1006" y="598" font-size="14" fill="#1e40af" font-family="Segoe UI, Arial">Sonraki gun icin daraltma veya genisletme onerisi cikariliyor</text>
  <rect x="980" y="670" width="392" height="150" rx="18" fill="#ecfdf5"/>
  <text x="1006" y="706" font-size="20" fill="#047857" font-family="Segoe UI, Arial">Haftalik Basari Raporu</text>
  <text x="1006" y="736" font-size="14" fill="#047857" font-family="Segoe UI, Arial">Son 7 gundeki tamamlanan gorevler</text>
  <text x="1006" y="762" font-size="14" fill="#047857" font-family="Segoe UI, Arial">Tur bazli dagilim ve genel ilerleme yuzdesi</text>
</svg>
