<svg xmlns="http://www.w3.org/2000/svg" width="1440" height="900" viewBox="0 0 1440 900">
  <defs>
    <linearGradient id="bg" x1="0" y1="0" x2="1" y2="1">
      <stop offset="0%" stop-color="#f8fafc"/>
      <stop offset="100%" stop-color="#e5eef8"/>
    </linearGradient>
    <linearGradient id="hero" x1="0" y1="0" x2="1" y2="1">
      <stop offset="0%" stop-color="#800000"/>
      <stop offset="100%" stop-color="#1e3a8a"/>
    </linearGradient>
  </defs>
  <rect width="1440" height="900" fill="url(#bg)"/>
  <rect x="0" y="0" width="1440" height="140" rx="0" fill="url(#hero)"/>
  <text x="720" y="55" font-size="36" text-anchor="middle" fill="#ffffff" font-family="Segoe UI, Arial">LEKSIKOGRAF v18</text>
  <text x="720" y="95" font-size="18" text-anchor="middle" fill="#dbeafe" font-family="Segoe UI, Arial">Yerel Akademik Platform - Temsili Dashboard Gorunumu</text>

  <rect x="28" y="168" width="270" height="676" rx="18" fill="#ffffff" stroke="#dbe4f0"/>
  <text x="58" y="208" font-size="24" fill="#1e293b" font-family="Segoe UI, Arial">Kontrol Paneli</text>
  <rect x="48" y="235" width="230" height="56" rx="14" fill="#f8fafc" stroke="#cbd5e1"/>
  <text x="60" y="268" font-size="16" fill="#475569" font-family="Segoe UI, Arial">Arsiv Klasoru</text>
  <rect x="48" y="316" width="110" height="44" rx="12" fill="#800000"/>
  <rect x="168" y="316" width="110" height="44" rx="12" fill="#1e3a8a"/>
  <text x="103" y="344" font-size="16" text-anchor="middle" fill="#fff" font-family="Segoe UI, Arial">Kaydet</text>
  <text x="223" y="344" font-size="16" text-anchor="middle" fill="#fff" font-family="Segoe UI, Arial">Arsivi Oku</text>
  <rect x="48" y="390" width="230" height="112" rx="16" fill="#f8fafc" stroke="#dbe4f0"/>
  <text x="62" y="424" font-size="20" fill="#0f172a" font-family="Segoe UI, Arial">Istatistikler</text>
  <text x="62" y="456" font-size="16" fill="#475569" font-family="Segoe UI, Arial">Dijital Not: 24</text>
  <text x="62" y="482" font-size="16" fill="#475569" font-family="Segoe UI, Arial">Akademik XP: 580</text>

  <rect x="326" y="168" width="1086" height="116" rx="24" fill="#ffffff" stroke="#dbe4f0"/>
  <rect x="356" y="198" width="220" height="56" rx="18" fill="#fef2f2"/>
  <rect x="596" y="198" width="220" height="56" rx="18" fill="#eff6ff"/>
  <rect x="836" y="198" width="220" height="56" rx="18" fill="#ecfdf5"/>
  <rect x="1076" y="198" width="220" height="56" rx="18" fill="#fff7ed"/>
  <text x="466" y="222" font-size="14" text-anchor="middle" fill="#7f1d1d" font-family="Segoe UI, Arial">Dijital Not</text>
  <text x="466" y="245" font-size="28" text-anchor="middle" fill="#7f1d1d" font-family="Segoe UI, Arial">24</text>
  <text x="706" y="222" font-size="14" text-anchor="middle" fill="#1d4ed8" font-family="Segoe UI, Arial">Ort. Dogruluk</text>
  <text x="706" y="245" font-size="28" text-anchor="middle" fill="#1d4ed8" font-family="Segoe UI, Arial">82.4%</text>
  <text x="946" y="222" font-size="14" text-anchor="middle" fill="#047857" font-family="Segoe UI, Arial">Islenen Sayfa</text>
  <text x="946" y="245" font-size="28" text-anchor="middle" fill="#047857" font-family="Segoe UI, Arial">61</text>
  <text x="1186" y="222" font-size="14" text-anchor="middle" fill="#c2410c" font-family="Segoe UI, Arial">Akademik XP</text>
  <text x="1186" y="245" font-size="28" text-anchor="middle" fill="#c2410c" font-family="Segoe UI, Arial">580</text>

  <rect x="326" y="308" width="690" height="536" rx="24" fill="#ffffff" stroke="#dbe4f0"/>
  <text x="360" y="352" font-size="28" fill="#0f172a" font-family="Segoe UI, Arial">Son Dijitallestirilen Notlar</text>
  <rect x="356" y="380" width="630" height="120" rx="18" fill="#f8fafc" stroke="#e2e8f0"/>
  <rect x="356" y="520" width="630" height="120" rx="18" fill="#f8fafc" stroke="#e2e8f0"/>
  <rect x="356" y="660" width="630" height="120" rx="18" fill="#f8fafc" stroke="#e2e8f0"/>
  <text x="382" y="415" font-size="20" fill="#111827" font-family="Segoe UI, Arial">UTL111 - Hukukun Temel Kavramlari</text>
  <text x="382" y="447" font-size="15" fill="#475569" font-family="Segoe UI, Arial">Sayfa 1, kalite 84/100, guven 86%</text>
  <text x="382" y="478" font-size="15" fill="#475569" font-family="Segoe UI, Arial">Aile Hukuku - ilkeler, nisanlanma, evlilik...</text>

  <rect x="1042" y="308" width="370" height="536" rx="24" fill="#ffffff" stroke="#dbe4f0"/>
  <text x="1072" y="352" font-size="28" fill="#0f172a" font-family="Segoe UI, Arial">Yerel Calisma Ilkeleri</text>
  <rect x="1072" y="380" width="310" height="60" rx="16" fill="#eff6ff"/>
  <rect x="1072" y="454" width="310" height="60" rx="16" fill="#ecfdf5"/>
  <rect x="1072" y="528" width="310" height="60" rx="16" fill="#fff7ed"/>
  <text x="1094" y="416" font-size="16" fill="#1e3a8a" font-family="Segoe UI, Arial">API anahtari yok</text>
  <text x="1094" y="490" font-size="16" fill="#047857" font-family="Segoe UI, Arial">Uzak LLM yok</text>
  <text x="1094" y="564" font-size="16" fill="#c2410c" font-family="Segoe UI, Arial">Yerel OCR + yerel cache</text>
</svg>
